# Blender 5.1.2
# www.blender.org
mtllib northwestern_n.mtl
o Cube
v 1.000000 1.000000 -1.000000
v 1.000000 -1.000000 -1.000000
v 1.000000 1.000000 1.000000
v 1.000000 -1.000000 1.000000
v -1.000000 1.000000 -1.000000
v -1.000000 -1.000000 -1.000000
v -1.000000 1.000000 1.000000
v -1.000000 -1.000000 1.000000
vn -0.0000 1.0000 -0.0000
vn -0.0000 -0.0000 1.0000
vn -1.0000 -0.0000 -0.0000
vn -0.0000 -1.0000 -0.0000
vn 1.0000 -0.0000 -0.0000
vn -0.0000 -0.0000 -1.0000
vt 0.625000 0.500000
vt 0.875000 0.500000
vt 0.875000 0.750000
vt 0.625000 0.750000
vt 0.375000 0.750000
vt 0.625000 1.000000
vt 0.375000 1.000000
vt 0.375000 0.000000
vt 0.625000 0.000000
vt 0.625000 0.250000
vt 0.375000 0.250000
vt 0.125000 0.500000
vt 0.375000 0.500000
vt 0.125000 0.750000
s 0
usemtl Material
f 1/1/1 5/2/1 7/3/1 3/4/1
f 4/5/2 3/4/2 7/6/2 8/7/2
f 8/8/3 7/9/3 5/10/3 6/11/3
f 6/12/4 2/13/4 4/5/4 8/14/4
f 2/13/5 1/1/5 3/4/5 4/5/5
f 6/11/6 5/10/6 1/1/6 2/13/6
o northwestern_n
v 14.079500 -21.777500 -4.999999
v 2.798500 -21.777500 -4.999999
v 2.798500 -14.996500 -4.999999
v 2.935500 -14.766500 -4.999999
v 8.978500 -4.614501 -5.000000
v 8.978500 3.845500 -5.000000
v -5.830500 -21.299500 -4.999999
v -6.111500 -21.777500 -4.999999
v -14.079500 -21.777500 -4.999999
v -14.079500 21.777500 -5.000001
v -2.799500 21.777500 -5.000001
v -2.799500 14.995500 -5.000001
v -2.935500 14.766500 -5.000001
v -8.978500 4.614500 -5.000000
v -8.978500 -3.845500 -5.000000
v 5.829500 21.299500 -5.000001
v 6.111500 21.777500 -5.000001
v 14.079500 21.777500 -5.000001
v 13.108500 -20.806499 -4.999999
v 9.949500 -4.882501 -5.000000
v 9.949500 7.406499 -5.000000
v 9.949500 -4.881500 -5.000000
v 3.769500 -15.263500 -4.999999
v 3.769500 -20.806499 -4.999999
v 3.769500 -15.264500 -4.999999
v -6.666500 -20.806499 -4.999999
v 0.163292 -9.209500 -5.000000
v -1.879543 -12.678028 -4.999999
v -6.666911 -20.806499 -4.999999
v -3.770500 20.805500 -5.000001
v -3.770500 20.806499 -5.000001
v -13.108500 20.806499 -5.000001
v -13.108500 -20.806499 -4.999999
v -13.108500 20.805500 -5.000001
v 6.666500 20.805500 -5.000001
v 13.108500 20.805500 -5.000001
v 13.108500 20.806499 -5.000001
v 6.666500 20.806499 -5.000001
v -9.949500 -7.407500 -5.000000
v -9.949500 -7.408501 -5.000000
v 14.079500 -21.777500 5.000001
v 2.798500 -21.777500 5.000001
v 2.798500 -14.996500 5.000001
v 2.935500 -14.766500 5.000001
v 8.978500 -4.614500 5.000000
v 8.978500 3.845500 5.000000
v -5.830500 -21.299500 5.000001
v -6.111500 -21.777500 5.000001
v -14.079500 -21.777500 5.000001
v -14.079500 21.777500 4.999999
v -2.799500 21.777500 4.999999
v -2.799500 14.995500 4.999999
v -2.935500 14.766500 4.999999
v -8.978500 4.614501 5.000000
v -8.978500 -3.845500 5.000000
v 5.829500 21.299500 4.999999
v 6.111500 21.777500 4.999999
v 14.079500 21.777500 4.999999
v 13.108500 -20.806499 5.000001
v 9.949500 -4.882500 5.000000
v 9.949500 7.406500 5.000000
v 9.949500 -4.881499 5.000000
v 3.769500 -15.263500 5.000001
v 3.769500 -20.806499 5.000001
v 3.769500 -15.264500 5.000001
v -6.666500 -20.806499 5.000001
v 0.163292 -9.209500 5.000000
v -1.879543 -12.678028 5.000001
v -6.666911 -20.806499 5.000001
v -3.770500 20.805500 4.999999
v -3.770500 20.806499 4.999999
v -13.108500 20.806499 4.999999
v -13.108500 -20.806499 5.000001
v -13.108500 20.805500 4.999999
v 6.666500 20.805500 4.999999
v 13.108500 20.805500 4.999999
v 13.108500 20.806499 4.999999
v 6.666500 20.806499 4.999999
v -9.949500 -7.407499 5.000000
v -9.949500 -7.408500 5.000000
vn -0.0000 -0.0000 -1.0000
vn -0.0000 -0.0000 1.0000
vn 0.0006 -0.0000 1.0000
vn 0.0018 -0.0000 1.0000
vn -0.0000 -1.0000 -0.0000
vn -1.0000 -0.0000 -0.0000
vn -0.8591 0.5117 -0.0000
vn -0.8593 0.5115 -0.0000
vn 0.8617 -0.5075 -0.0000
vn 0.8621 -0.5068 -0.0000
vn -0.0000 1.0000 -0.0000
vn 1.0000 -0.0000 -0.0000
vn 0.8598 -0.5106 -0.0000
vn 0.8593 -0.5115 -0.0000
vn -0.8617 0.5074 -0.0000
vn -0.8613 0.5081 -0.0000
vn -0.7071 -0.7071 -0.0000
vn 0.7071 0.7071 -0.0000
vn -0.8617 0.5075 -0.0000
s 0
f 31//7 32//7 10//7
f 32//7 33//7 28//7
f 27//7 9//7 10//7
f 26//7 9//7 27//7
f 24//7 25//7 26//7
f 20//7 21//7 22//7
f 41//7 17//7 18//7
f 48//7 41//7 42//7
f 48//7 43//7 44//7
f 37//7 41//7 48//7
f 17//7 41//7 34//7
f 15//7 16//7 17//7
f 10//7 11//7 12//7
f 27//7 10//7 32//7
f 19//7 20//7 22//7
f 40//7 41//7 18//7
f 47//7 48//7 42//7
f 37//7 48//7 44//7
f 15//7 17//7 34//7
f 31//7 10//7 12//7
f 27//7 32//7 28//7
f 40//7 18//7 19//7
f 36//7 37//7 44//7
f 15//7 34//7 35//7
f 31//7 12//7 13//7
f 27//7 28//7 29//7
f 39//7 40//7 19//7
f 35//7 36//7 44//7
f 14//7 15//7 35//7
f 30//7 31//7 13//7
f 38//7 39//7 19//7
f 14//7 35//7 44//7
f 30//7 13//7 14//7
f 26//7 27//7 29//7
f 38//7 19//7 22//7
f 29//7 30//7 14//7
f 42//7 38//7 22//7
f 29//7 14//7 44//7
f 42//7 22//7 23//7
f 26//7 29//7 44//7
f 47//7 42//7 23//7
f 26//7 44//7 45//7
f 47//7 23//7 24//7
f 26//7 45//7 46//7
f 46//7 47//7 24//7
f 24//7 26//7 46//7
f 50//8 72//8 71//8
f 68//8 73//8 72//8
f 50//8 49//8 67//8
f 67//8 49//8 66//8
f 66//8 65//8 64//8
f 62//9 61//9 60//9
f 58//8 57//8 81//8
f 82//8 81//8 88//8
f 84//8 83//8 88//8
f 88//8 81//8 77//8
f 74//8 81//8 57//8
f 57//8 56//8 55//8
f 52//8 51//8 50//8
f 72//8 50//8 67//8
f 62//8 60//8 59//8
f 58//8 81//8 80//8
f 82//10 88//10 87//10
f 84//8 88//8 77//8
f 74//8 57//8 55//8
f 52//8 50//8 71//8
f 68//8 72//8 67//8
f 59//8 58//8 80//8
f 84//8 77//8 76//8
f 75//8 74//8 55//8
f 53//8 52//8 71//8
f 69//8 68//8 67//8
f 59//8 80//8 79//8
f 84//8 76//8 75//8
f 75//8 55//8 54//8
f 53//8 71//8 70//8
f 59//8 79//8 78//8
f 84//8 75//8 54//8
f 54//8 53//8 70//8
f 69//8 67//8 66//8
f 62//8 59//8 78//8
f 54//8 70//8 69//8
f 62//8 78//8 82//8
f 84//8 54//8 69//8
f 63//8 62//8 82//8
f 84//8 69//8 66//8
f 63//8 82//8 87//8
f 85//8 84//8 66//8
f 64//8 63//8 87//8
f 86//8 85//8 66//8
f 64//8 87//8 86//8
f 86//8 66//8 64//8
f 49//11 50//11 9//11
f 9//11 50//11 10//11
f 50//12 51//12 10//12
f 10//12 51//12 11//12
f 51//13 52//13 11//13
f 11//13 52//13 12//13
f 52//14 53//14 12//14
f 12//14 53//14 13//14
f 53//12 54//12 13//12
f 13//12 54//12 14//12
f 54//15 55//15 14//15
f 14//15 55//15 15//15
f 55//16 56//16 15//16
f 15//16 56//16 16//16
f 56//11 57//11 16//11
f 16//11 57//11 17//11
f 57//12 58//12 17//12
f 17//12 58//12 18//12
f 58//17 59//17 18//17
f 18//17 59//17 19//17
f 59//18 60//18 19//18
f 19//18 60//18 20//18
f 60//19 61//19 20//19
f 20//19 61//19 21//19
f 61//20 62//20 21//20
f 21//20 62//20 22//20
f 62//18 63//18 22//18
f 22//18 63//18 23//18
f 63//21 64//21 23//21
f 23//21 64//21 24//21
f 64//22 65//22 24//22
f 24//22 65//22 25//22
f 65//17 66//17 25//17
f 25//17 66//17 26//17
f 66//18 49//18 26//18
f 26//18 49//18 9//18
f 49//23 67//23 9//23
f 9//23 67//23 27//23
f 67//24 49//24 27//24
f 27//24 49//24 9//24
f 68//12 69//12 28//12
f 28//12 69//12 29//12
f 69//18 70//18 29//18
f 29//18 70//18 30//18
f 70//20 71//20 30//20
f 30//20 71//20 31//20
f 71//18 72//18 31//18
f 31//18 72//18 32//18
f 73//14 68//14 33//14
f 33//14 68//14 28//14
f 72//12 73//12 32//12
f 32//12 73//12 33//12
f 74//25 75//25 34//25
f 34//25 75//25 35//25
f 75//15 76//15 35//15
f 35//15 76//15 36//15
f 76//15 77//15 36//15
f 36//15 77//15 37//15
f 78//12 79//12 38//12
f 38//12 79//12 39//12
f 79//11 80//11 39//11
f 39//11 80//11 40//11
f 81//17 74//17 41//17
f 41//17 74//17 34//17
f 80//18 81//18 40//18
f 40//18 81//18 41//18
f 77//11 81//11 37//11
f 37//11 81//11 41//11
f 82//17 78//17 42//17
f 42//17 78//17 38//17
f 81//12 82//12 41//12
f 41//12 82//12 42//12
f 83//17 84//17 43//17
f 43//17 84//17 44//17
f 84//12 85//12 44//12
f 44//12 85//12 45//12
f 85//11 86//11 45//11
f 45//11 86//11 46//11
f 86//15 87//15 46//15
f 46//15 87//15 47//15
f 88//25 83//25 48//25
f 48//25 83//25 43//25
f 87//18 88//18 47//18
f 47//18 88//18 48//18
